<svg width="48" height="48" viewBox="0 0 48 48" fill="none" xmlns="http://www.w3.org/2000/svg">
<path d="M28 24C28 23.4696 28.2107 22.9609 28.5858 22.5858C28.9609 22.2107 29.4696 22 30 22C30.5304 22 31.0391 22.2107 31.4142 22.5858C31.7893 22.9609 32 23.4696 32 24C32 24.5304 31.7893 25.0391 31.4142 25.4142C31.0391 25.7893 30.5304 26 30 26C29.4696 26 28.9609 25.7893 28.5858 25.4142C28.2107 25.0391 28 24.5304 28 24ZM22 24C22 23.4696 22.2107 22.9609 22.5858 22.5858C22.9609 22.2107 23.4696 22 24 22C24.5304 22 25.0391 22.2107 25.4142 22.5858C25.7893 22.9609 26 23.4696 26 24C26 24.5304 25.7893 25.0391 25.4142 25.4142C25.0391 25.7893 24.5304 26 24 26C23.4696 26 22.9609 25.7893 22.5858 25.4142C22.2107 25.0391 22 24.5304 22 24ZM16 24C16 23.4696 16.2107 22.9609 16.5858 22.5858C16.9609 22.2107 17.4696 22 18 22C18.5304 22 19.0391 22.2107 19.4142 22.5858C19.7893 22.9609 20 23.4696 20 24C20 24.5304 19.7893 25.0391 19.4142 25.4142C19.0391 25.7893 18.5304 26 18 26C17.4696 26 16.9609 25.7893 16.5858 25.4142C16.2107 25.0391 16 24.5304 16 24Z" fill="#28282A"/>
</svg>
