<svg width="160" height="32" viewBox="0 0 160 32" fill="none" xmlns="http://www.w3.org/2000/svg">
<path d="M10.4393 26.3385C9.03016 28.2815 8.52829 29.9647 9.76444 32L8.26684 29.5369C7.0307 27.5019 7.13755 25.0214 8.54799 23.0796L16.2256 12.4964L16.227 12.4988C16.2316 12.5099 16.2363 12.5209 16.2413 12.532C17.2274 14.8214 16.9269 17.396 15.4346 19.4531L10.4393 26.3385Z" fill="#28282A"/>
<path d="M6.84758 21.5745L14.0527 12.2349L14.5997 11.0832C15.2378 8.83371 14.8197 6.41074 13.3712 4.41442L12.9244 3.82627L10.2879 0.00261116L10.2862 -8.58307e-05L1.32835 12.3485C-0.317506 14.6141 -0.442055 17.5084 1.00011 19.8828L2.74747 22.7564C1.30531 20.382 1.89099 18.418 3.53484 16.1509L12.0222 4.45187C12.0683 4.59179 12.114 4.7335 12.1601 4.87761L12.1688 4.86563C12.1711 4.87312 12.1735 4.88031 12.1762 4.8875C12.5925 6.13809 12.3568 7.49084 11.5631 8.58473L5.42345 17.0476C3.54018 19.6423 3.39727 22.9533 5.0478 25.6708L6.09361 27.3915C5.32361 25.4715 5.58306 23.3158 6.84758 21.5745Z" fill="#28282A"/>
<path d="M129.615 12.3056C129.741 12.1463 129.842 11.9626 129.997 11.8311C132.01 10.1218 134.366 9.60194 136.998 10.3678C139.575 11.1174 141.001 12.8105 141.455 15.1613C141.581 15.8165 141.539 16.5005 141.541 17.1717C141.545 19.2702 141.533 21.3689 141.527 23.4671C141.527 23.6047 141.527 23.7422 141.527 23.9094H138.73C138.721 23.7386 138.705 23.5777 138.705 23.4162C138.704 21.3039 138.718 19.1911 138.697 17.0788C138.691 16.5086 138.62 15.9325 138.507 15.3707C138.18 13.7423 136.612 12.5807 134.81 12.596C132.941 12.6116 131.383 13.7956 131.124 15.4765C130.989 16.3462 130.948 17.2319 130.934 18.111C130.907 19.8736 130.927 21.6365 130.928 23.3994V23.898H128.073C128.073 23.7017 128.074 23.5232 128.073 23.3446C128.05 20.939 128.056 18.5328 127.994 16.1278C127.962 14.8602 127.422 13.789 126.156 13.0924C123.922 11.8631 120.952 13.0199 120.523 15.3317C120.353 16.2507 120.314 17.1959 120.3 18.1301C120.275 19.8787 120.312 21.6278 120.322 23.3764C120.323 23.542 120.323 23.7077 120.323 23.9061H117.524C117.513 23.7775 117.496 23.6676 117.496 23.5576C117.495 21.0394 117.467 18.5211 117.501 16.0029C117.548 12.5139 120.571 9.92552 124.455 10.0439C126.259 10.0987 127.814 10.7273 129.09 11.8841C129.2 11.9836 129.307 12.0851 129.419 12.1825C129.439 12.1996 129.476 12.1996 129.505 12.2074C129.542 12.2403 129.578 12.273 129.615 12.3056Z" fill="#28282A"/>
<path d="M147.281 29.5781H144.506C144.497 29.419 144.482 29.2829 144.482 29.1469C144.481 25.1045 144.472 21.0621 144.485 17.0198C144.496 13.6371 147.032 10.8525 150.686 10.1739C154.834 9.4039 158.908 11.7999 159.824 15.5478C160.718 19.2033 158.119 22.8718 154.028 23.7368C153.074 23.9387 152.115 23.9975 151.15 23.8357C151.025 23.815 150.833 23.6736 150.829 23.584C150.804 22.8182 150.815 22.0521 150.815 21.3171C151.621 21.3171 152.395 21.4115 153.13 21.3C155.629 20.9207 157.336 18.913 157.163 16.6542C157 14.509 155.007 12.6984 152.661 12.5624C150.055 12.412 147.813 13.9323 147.363 16.1761C147.287 16.5581 147.285 16.9559 147.284 17.3466C147.279 21.235 147.281 25.1237 147.281 29.0121V29.5781Z" fill="#28282A"/>
<path d="M108.219 21.2883C108.219 22.0577 108.234 22.8247 108.2 23.59C108.196 23.6837 107.937 23.8302 107.781 23.8476C104.873 24.1688 102.472 23.2837 100.688 21.2338C98.8752 19.1509 98.5162 16.7905 99.6388 14.3484C100.752 11.9266 102.829 10.4864 105.739 10.1151C110.357 9.52581 114.47 12.6837 114.536 16.8591C114.571 19.0829 114.536 21.3072 114.554 23.5312C114.557 23.8809 114.41 23.9558 114.062 23.9447C113.453 23.9255 112.843 23.9204 112.236 23.9462C111.85 23.9627 111.729 23.8557 111.732 23.5022C111.748 21.3198 111.756 19.1377 111.733 16.9559C111.712 14.9854 110.38 13.3393 108.285 12.764C106.318 12.2241 104.553 12.631 103.161 13.9936C101.771 15.3554 101.45 16.9733 102.246 18.6727C103.04 20.3685 104.539 21.2805 106.604 21.3776C107.111 21.4013 107.625 21.324 108.219 21.2883Z" fill="#28282A"/>
<path d="M72.365 22.0875C70.8073 23.2979 69.083 23.9421 67.0965 23.9277C63.7581 23.9038 60.8818 22.0461 59.7702 19.2415C58.1711 15.2078 61.2765 10.6567 66.0097 10.1171C68.9374 9.78358 71.3356 10.6779 73.2522 12.6707C73.502 12.9304 73.5037 13.1042 73.2576 13.381C71.9633 14.8351 70.6975 16.3098 69.4212 17.7764C69.3167 17.8965 69.2069 18.0125 69.0603 18.1736C68.3287 17.6484 67.6188 17.1385 66.8752 16.6046C67.8479 15.484 68.7918 14.3967 69.7368 13.3082C67.0081 11.5741 63.0445 13.011 62.3156 15.9553C61.8702 17.7548 62.6221 19.5381 64.2643 20.5762C65.9202 21.6234 68.0175 21.6635 69.7612 20.6616C69.9996 20.5247 70.1508 20.5139 70.3719 20.6766C71.009 21.1458 71.6655 21.5946 72.365 22.0875Z" fill="#28282A"/>
<path d="M33.8261 12.5735V23.9352C32.9382 23.9352 32.0987 23.9403 31.2596 23.9265C31.1798 23.925 31.0783 23.8114 31.0309 23.729C30.9925 23.6625 31.0195 23.5651 31.0195 23.481C31.0195 19.1441 31.0192 14.8069 31.0205 10.4697C31.0205 10.3462 31.0356 10.2228 31.0422 10.1155C31.0917 10.0849 31.1167 10.0559 31.1411 10.0562C33.0998 10.0724 35.0812 9.81829 36.9956 10.3932C40.1834 11.3508 42.2563 13.911 42.3024 16.9853C42.3355 19.1674 42.3041 21.3504 42.3165 23.5328C42.3185 23.839 42.2266 23.9582 41.8687 23.9457C41.2453 23.9235 40.6188 23.9214 39.9958 23.946C39.6084 23.9615 39.4875 23.8489 39.4899 23.4977C39.5059 21.3852 39.5019 19.2726 39.4962 17.16C39.4909 15.2284 38.5366 13.8115 36.5962 12.9531C35.7487 12.578 34.8388 12.4971 33.8261 12.5735Z" fill="#28282A"/>
<path d="M48.3817 12.5738V13.1332C48.3817 16.5593 48.373 19.9857 48.3927 23.4117C48.395 23.8363 48.2752 23.9741 47.795 23.9493C47.0824 23.9121 46.3658 23.9397 45.6216 23.9397V10.1062C45.6496 10.0856 45.674 10.0526 45.6977 10.0529C47.7469 10.0793 49.8202 9.80901 51.817 10.4739C54.7814 11.4608 56.825 14.0243 56.853 16.8562C56.8751 19.0937 56.859 21.3312 56.8587 23.5687C56.8587 23.6658 56.846 23.7626 56.8367 23.8989H54.0585V23.383C54.0582 21.2851 54.0675 19.1875 54.0555 17.0899C54.0418 14.7838 52.401 13.0275 49.8759 12.6086C49.5413 12.5532 49.1931 12.5625 48.8505 12.5502C48.7146 12.5454 48.5773 12.5631 48.3817 12.5738Z" fill="#28282A"/>
<path d="M95.8183 20.592C96.5185 21.1948 97.1686 21.7545 97.8184 22.3139C95.662 24.1607 91.036 24.8214 87.7316 22.1362C84.5724 19.5694 84.3036 15.2119 87.1342 12.3655C89.9033 9.58064 94.7694 9.23609 97.8615 11.657C97.4291 12.0516 96.9986 12.4458 96.5659 12.838C95.9505 13.3965 95.9498 13.3959 95.1858 13.0418C93.3684 12.1987 91.1762 12.4464 89.6422 13.6683C88.1022 14.8952 87.5726 16.8439 88.3106 18.5705C89.0282 20.2496 90.8573 21.3698 92.8842 21.3914C93.9834 21.4031 94.9685 21.1056 95.8183 20.592Z" fill="#28282A"/>
<path d="M78.4349 23.9345C77.5373 23.9345 76.6982 23.9426 75.8601 23.922C75.7796 23.9199 75.6367 23.7392 75.6374 23.6418C75.6477 21.141 75.5582 18.6338 75.7258 16.1404C75.9312 13.0906 78.9938 10.404 82.3517 10.1065C82.4415 10.0987 82.5326 10.1056 82.6792 10.1056C82.6792 10.8831 82.6889 11.6483 82.6655 12.412C82.6629 12.4947 82.4829 12.6188 82.363 12.646C79.9221 13.1991 78.4419 14.8862 78.4362 17.1513C78.4309 19.2342 78.4349 21.3168 78.4349 23.3994V23.9345Z" fill="#28282A"/>
<path d="M24.6369 10.055H27.3633C27.3743 10.2222 27.3923 10.3705 27.3923 10.5188C27.3937 14.8278 27.3887 19.1369 27.402 23.4456C27.403 23.8183 27.3112 23.9684 26.8624 23.9483C26.1332 23.9157 25.4012 23.9396 24.6369 23.9396V10.055Z" fill="#28282A"/>
<path d="M26.0118 4.15672C26.8903 4.1657 27.6246 4.83324 27.6133 5.61314C27.6019 6.39812 26.8606 7.06177 25.9931 7.06326C25.1042 7.06506 24.3563 6.37805 24.3726 5.57508C24.3887 4.78261 25.1226 4.14773 26.0118 4.15672Z" fill="#28282A"/>
</svg>
