<svg width="52" height="52" viewBox="0 0 52 52" fill="none" xmlns="http://www.w3.org/2000/svg">
<path d="M29.55 27C30.3 27 30.96 26.59 31.3 25.97L34.88 19.48C35.25 18.82 34.77 18 34.01 18H19.21L18.27 16H15V18H17L20.6 25.59L19.25 28.03C18.52 29.37 19.48 31 21 31H33V29H21L22.1 27H29.55ZM20.16 20H32.31L29.55 25H22.53L20.16 20ZM21 32C19.9 32 19.01 32.9 19.01 34C19.01 35.1 19.9 36 21 36C22.1 36 23 35.1 23 34C23 32.9 22.1 32 21 32ZM31 32C29.9 32 29.01 32.9 29.01 34C29.01 35.1 29.9 36 31 36C32.1 36 33 35.1 33 34C33 32.9 32.1 32 31 32Z" fill="#323232"/>
</svg>
